<?xml version="1.0" standalone="no"?><!DOCTYPE svg PUBLIC "-//W3C//DTD SVG 1.1//EN" "http://www.w3.org/Graphics/SVG/1.1/DTD/svg11.dtd"><svg t="1722179509762" class="icon" viewBox="0 0 1024 1024" version="1.1" xmlns="http://www.w3.org/2000/svg" p-id="19428" xmlns:xlink="http://www.w3.org/1999/xlink" width="200" height="200"><path d="M42.666667 42.666667a42.666667 42.666667 0 0 1 42.666666-42.666667h853.333334a42.666667 42.666667 0 0 1 42.666666 42.666667v938.666666a42.666667 42.666667 0 0 1-42.666666 42.666667H85.333333a42.666667 42.666667 0 0 1-42.666666-42.666667V42.666667z m85.333333 42.666666v853.333334h768V85.333333H128z" p-id="19429"></path><path d="M213.333333 341.333333a42.666667 42.666667 0 0 1 42.666667-42.666666h512a42.666667 42.666667 0 1 1 0 85.333333H256a42.666667 42.666667 0 0 1-42.666667-42.666667zM213.333333 597.333333a42.666667 42.666667 0 0 1 42.666667-42.666666h341.333333a42.666667 42.666667 0 1 1 0 85.333333H256a42.666667 42.666667 0 0 1-42.666667-42.666667z" p-id="19430"></path></svg>