<?xml version="1.0" standalone="no"?><!DOCTYPE svg PUBLIC "-//W3C//DTD SVG 1.1//EN" "http://www.w3.org/Graphics/SVG/1.1/DTD/svg11.dtd"><svg t="1722179772351" class="icon" viewBox="0 0 1024 1024" version="1.1" xmlns="http://www.w3.org/2000/svg" p-id="20576" xmlns:xlink="http://www.w3.org/1999/xlink" width="200" height="200"><path d="M953.956231 102.226042 953.956231 17.088838 953.956231 0l-17.088838 0L17.140002 0 0.051164 0l0 17.088838 0 919.727391 0 17.088838 17.088838 0 84.420905 0 0 70.094934 921.773958 0L1023.334866 102.226042 953.956231 102.226042zM34.22884 919.727391 34.22884 34.177676l885.652044 0 0 68.150695L101.560907 102.32837l0 817.501349L34.22884 919.829719zM989.15719 989.822324l-853.418607 0 0-853.418607 853.418607 0L989.15719 989.822324z" p-id="20577"></path><path d="M277.156391 472.040771c4.502448-1.330269 12.688718-3.479165 23.330868-5.62806 18.521435-3.78615 37.04287-5.935045 54.029379-5.730389 43.387229 0.511642 65.694814 14.939942 65.694814 49.322274l0 6.753672c-0.204657 0-0.511642-0.102328-0.716299-0.102328-22.819227-2.865194-46.252423-3.888478-68.560008-1.944239-59.452783 5.218747-98.439892 31.107825-98.439892 83.909264 0 53.210752 36.224243 82.27201 88.718697 84.420905 27.321675 1.125612 56.689917-5.321075 78.997502-16.577196L420.211452 680.483661c0 9.41421 7.674628 17.088838 17.088838 17.088838 9.41421 0 17.088838-7.674628 17.088838-17.088838L454.389128 510.004597c0-57.201559-39.601079-82.783651-99.463176-83.49995-19.749375-0.204657-40.522035 2.251224-61.192365 6.344359-11.870091 2.353553-21.079644 4.809433-26.503048 6.446687-9.004897 2.762866-14.121315 12.279404-11.358449 21.284301C258.634956 469.789547 268.151494 474.803637 277.156391 472.040771zM342.748876 648.966523c-35.81493-1.432597-55.973618-17.60048-55.973618-50.345558 0-30.596183 23.22854-45.945438 67.332068-49.833916 19.44239-1.739582 40.726691-0.818627 61.294694 1.739582 1.023284 0.102328 2.046567 0.306985 3.069851 0.409313l0 76.336964C404.862196 639.75697 372.01479 650.194464 342.748876 648.966523z" p-id="20578"></path><path d="M579.434396 546.024183l154.004197 0c9.41421 0 17.088838-7.674628 17.088838-17.088838s-7.674628-17.088838-17.088838-17.088838L579.434396 511.846507c-9.41421 0-17.088838 7.674628-17.088838 17.088838S570.020186 546.024183 579.434396 546.024183z" p-id="20579"></path><path d="M579.434396 648.454882l154.004197 0c9.41421 0 17.088838-7.674628 17.088838-17.088838s-7.674628-17.088838-17.088838-17.088838L579.434396 614.277206c-9.41421 0-17.088838 7.674628-17.088838 17.088838S570.020186 648.454882 579.434396 648.454882z" p-id="20580"></path><path d="M852.548816 696.344559c9.41421 0 17.088838-7.674628 17.088838-17.088838L869.637654 443.593485c0-9.41421-7.674628-17.088838-17.088838-17.088838s-17.088838 7.674628-17.088838 17.088838l0 235.662236C835.459978 688.669931 843.134606 696.344559 852.548816 696.344559z" p-id="20581"></path></svg>