<?xml version="1.0" standalone="no"?><!DOCTYPE svg PUBLIC "-//W3C//DTD SVG 1.1//EN" "http://www.w3.org/Graphics/SVG/1.1/DTD/svg11.dtd"><svg t="1722178310406" class="icon" viewBox="0 0 1024 1024" version="1.1" xmlns="http://www.w3.org/2000/svg" p-id="9323" xmlns:xlink="http://www.w3.org/1999/xlink" width="200" height="200"><path d="M96 800h832c17.7 0 32-14.3 32-32s-14.3-32-32-32H96c-17.7 0-32 14.3-32 32s14.3 32 32 32zM135.4 316.9v321.9c0 18.4 14.9 33.2 33.2 33.2 18.4 0 33.2-14.9 33.2-33.2V224H150c-7 17-20 35.6-42 49-11.9 6.6-19.7 10.5-26.6 13.4-10.5 4.5-17.4 14.7-17.4 26.1 0 20.4 21.1 34.3 39.7 25.9 13.3-5.9 23.9-12.8 31.7-21.5zM433.5 479.1c-49.4 34.1-82.3 60.4-98.2 79.3C306 591.3 292 628.7 292 672h271c16 0 29-13 29.1-29 0-16.1-13-29.1-29.1-29.1H374.4c9.1-23.8 37.2-51.2 84.1-82.3 43.3-29.3 73.2-52.4 90.2-70.1 28-31.1 42.7-65.2 42.7-103.1 0-38.4-13.4-69.5-39.6-93.9-26.8-24.4-61.6-36-103.1-36-46.3 0-84.1 15.2-112.2 47-19.6 20.9-32.3 46.8-38.3 77.6-3.9 20.5 11.7 39.5 32.5 39.5 16.2 0 30.2-11.7 32.7-27.7 3.4-21.8 10.1-39 20.7-52.2 14-18.9 34.8-28 62.2-28 25.6 0 45.7 6.1 59.1 18.3 13.4 12.2 20.1 30.5 20.1 54.9 0 25.6-10.4 49.4-29.9 71.3-12.1 12.7-32.8 29.2-62.1 49.9zM809 614c-25.6 0-49.1-6.4-65-21-12.2-10.6-19-19.7-22.6-33.3-3.7-14.3-16.5-24.5-31.3-24.5h-1c-21.4 0-36.9 20.6-30.9 41.2 7.8 27.2 21.8 48 42.8 65.6 26.8 22.6 64.3 29.9 108.8 29.9 46.3 0 85-10.3 114.2-35.9 27.4-25.6 36-51.8 36-92 0-25.6-4.6-46.9-16.7-64.3-12.3-17.7-32.9-28-58.5-36 47.6-15.9 72-48.2 72-95.7 0-37.2-14.3-65.4-39-87.8C891 236 854.9 224 811 224c-42.7 0-76.2 16.1-103.1 40.5-18.6 15.8-31.8 35.5-39.8 59.1-7 20.7 8.5 42.1 30.3 42.1 14.3 0 26.8-9.6 30.8-23.3 4.5-15.5 11.9-27.9 22-37.1 14.6-13.4 34.4-24.1 60.6-24.1 25.6 0 46.7 9.5 60.1 21.7 12.2 11.6 18.9 28 18.9 50s-7.3 39-20.7 50.6c-13.4 11.6-33.5 17.7-60.4 17.7h-6.1c-13.8 0-25 11.2-25 25s11.2 25 25 25h6.7c28.7 0 50.6 6.1 65.2 18.3 15.9 12.2 23.8 31.1 23.8 56.7 0 22-7.8 35.2-22.4 49.8-17 15.9-39.9 18-67.9 18z" p-id="9324"></path></svg>